<svg xmlns="http://www.w3.org/2000/svg" viewBox="0 0 400 400" width="400" height="400">
  <defs>
    <linearGradient id="bgGrad" x1="0%" y1="0%" x2="0%" y2="100%">
      <stop offset="0%" stop-color="#2E7D32"/>
      <stop offset="100%" stop-color="#1B5E20"/>
    </linearGradient>
    <linearGradient id="leafG" x1="0%" y1="0%" x2="0%" y2="100%">
      <stop offset="0%" stop-color="#A5D6A7"/>
      <stop offset="100%" stop-color="#FFF8E1"/>
    </linearGradient>
  </defs>

  <rect width="400" height="400" rx="40" fill="url(#bgGrad)"/>
  <rect x="15" y="15" width="370" height="370" rx="32" fill="none" stroke="#C9A227" stroke-width="2"/>

  <g stroke="#FFF8E1" stroke-width="4" fill="none" stroke-linecap="round" opacity="0.6">
    <path d="M200,290 Q160,300 120,308"/>
    <path d="M200,290 Q200,305 200,318"/>
    <path d="M200,290 Q240,300 280,308"/>
  </g>

  <path d="M192,290 L192,180 Q192,172 200,172 Q208,172 208,180 L208,290 Z" fill="#FFF8E1"/>

  <g stroke="#FFF8E1" stroke-width="5" stroke-linecap="round" fill="none">
    <path d="M200,190 Q160,170 120,140"/>
    <path d="M200,190 Q240,170 280,140"/>
    <path d="M200,175 Q150,150 110,110"/>
    <path d="M200,175 Q250,150 290,110"/>
    <path d="M200,160 Q170,120 150,80"/>
    <path d="M200,160 Q230,120 250,80"/>
    <path d="M200,145 L200,70"/>
  </g>

  <g fill="url(#leafG)">
    <ellipse cx="120" cy="140" rx="14" ry="18" transform="rotate(-40 120 140)"/>
    <ellipse cx="280" cy="140" rx="14" ry="18" transform="rotate(40 280 140)"/>
    <ellipse cx="110" cy="110" rx="14" ry="18" transform="rotate(-50 110 110)"/>
    <ellipse cx="290" cy="110" rx="14" ry="18" transform="rotate(50 290 110)"/>
    <ellipse cx="150" cy="80" rx="14" ry="18" transform="rotate(-20 150 80)"/>
    <ellipse cx="250" cy="80" rx="14" ry="18" transform="rotate(20 250 80)"/>
  </g>
  <circle cx="200" cy="65" r="16" fill="#C9A227"/>
  <circle cx="200" cy="65" r="8" fill="#FFF8E1"/>

  <text x="200" y="355" font-family="Georgia, serif" font-size="46" font-weight="bold" fill="#FFF8E1" text-anchor="middle" letter-spacing="3">Vorhda</text>
</svg>
