<svg xmlns="http://www.w3.org/2000/svg" viewBox="0 0 64 64" width="64" height="64">
  <defs>
    <clipPath id="favClip"><rect width="64" height="64" rx="12"/></clipPath>
  </defs>
  <rect width="64" height="64" rx="12" fill="#1B5E20"/>

  <!-- горы -->
  <g clip-path="url(#favClip)">
    <path d="M0,52 L14,38 L24,46 L32,34 L40,46 L50,38 L64,52 L64,64 L0,64 Z" fill="#388E3C"/>
    <path d="M0,64 L0,56 L18,44 L32,52 L46,44 L64,56 L64,64 Z" fill="#14532D"/>
    <path d="M28,40 L32,34 L36,40 L33,38 L31,39 Z" fill="#FFF8E1"/>
  </g>

  <!-- древо -->
  <rect x="30.5" y="30" width="3" height="14" fill="#FFF8E1"/>
  <g stroke="#FFF8E1" stroke-width="2" stroke-linecap="round" fill="none">
    <path d="M32,32 L22,24"/>
    <path d="M32,32 L42,24"/>
    <path d="M32,28 L20,18"/>
    <path d="M32,28 L44,18"/>
    <path d="M32,24 L32,12"/>
  </g>
  <g fill="#C9A227">
    <circle cx="22" cy="24" r="2.6"/>
    <circle cx="42" cy="24" r="2.6"/>
    <circle cx="20" cy="18" r="2.6"/>
    <circle cx="44" cy="18" r="2.6"/>
    <circle cx="32" cy="12" r="3.2"/>
  </g>
</svg>
