<svg xmlns="http://www.w3.org/2000/svg" viewBox="0 0 400 400" width="400" height="400">
  <defs>
    <linearGradient id="skyG" x1="0%" y1="0%" x2="0%" y2="100%">
      <stop offset="0%" stop-color="#FFF8E1"/>
      <stop offset="100%" stop-color="#FBEFC6"/>
    </linearGradient>
    <linearGradient id="mtnFrontSq" x1="0%" y1="0%" x2="0%" y2="100%">
      <stop offset="0%" stop-color="#2E7D32"/>
      <stop offset="100%" stop-color="#1B5E20"/>
    </linearGradient>
    <linearGradient id="trunkSq" x1="0%" y1="0%" x2="0%" y2="100%">
      <stop offset="0%" stop-color="#5D4037"/>
      <stop offset="100%" stop-color="#3E2723"/>
    </linearGradient>
    <clipPath id="sqClip"><rect x="15" y="15" width="370" height="370" rx="32"/></clipPath>
  </defs>

  <rect width="400" height="400" rx="40" fill="#1B5E20"/>
  <rect x="15" y="15" width="370" height="370" rx="32" fill="url(#skyG)"/>

  <!-- Горы -->
  <g clip-path="url(#sqClip)">
    <path d="M15,250 L80,180 L130,212 L190,160 L250,210 L310,172 L385,240 L385,330 L15,330 Z" fill="#A5D6A7"/>
    <path d="M178,176 L190,160 L202,176 L193,171 L185,173 Z" fill="#FFF8E1"/>
    <path d="M15,290 L95,210 L155,250 L200,200 L255,250 L320,210 L385,285 L385,385 L15,385 Z" fill="#388E3C"/>
    <path d="M15,385 L15,320 L110,250 L200,300 L290,250 L385,320 L385,385 Z" fill="url(#mtnFrontSq)"/>
  </g>

  <!-- Древо рода -->
  <path d="M191,300 L191,210 Q191,202 200,202 Q209,202 209,210 L209,300 Z" fill="url(#trunkSq)"/>
  <g stroke="#1B5E20" stroke-width="7" stroke-linecap="round" fill="none">
    <path d="M200,220 Q160,196 130,160"/>
    <path d="M200,220 Q240,196 270,160"/>
    <path d="M200,206 Q150,176 120,128"/>
    <path d="M200,206 Q250,176 280,128"/>
    <path d="M200,192 Q168,150 150,104"/>
    <path d="M200,192 Q232,150 250,104"/>
    <path d="M200,184 L200,88"/>
  </g>
  <g fill="#C9A227">
    <circle cx="130" cy="160" r="12"/>
    <circle cx="270" cy="160" r="12"/>
    <circle cx="120" cy="128" r="12"/>
    <circle cx="280" cy="128" r="12"/>
    <circle cx="150" cy="104" r="12"/>
    <circle cx="250" cy="104" r="12"/>
    <circle cx="200" cy="88" r="14"/>
  </g>
  <circle cx="200" cy="88" r="6" fill="#FFF8E1"/>

  <rect x="15" y="15" width="370" height="370" rx="32" fill="none" stroke="#C9A227" stroke-width="3"/>
  <text x="200" y="362" font-family="Georgia, serif" font-size="44" font-weight="bold" fill="#1B5E20" text-anchor="middle" letter-spacing="3">Vorhda</text>
</svg>
