<svg xmlns="http://www.w3.org/2000/svg" viewBox="0 0 500 180" width="500" height="180">
  <defs>
    <clipPath id="monoClip"><circle cx="90" cy="90" r="73"/></clipPath>
  </defs>
  <circle cx="90" cy="90" r="78" fill="#1a1a1a"/>
  <circle cx="90" cy="90" r="73" fill="#fff"/>

  <!-- Горы контуром -->
  <g clip-path="url(#monoClip)">
    <path d="M17,138 L38,114 L60,128 L82,108 L104,126 L128,110 L150,126 L163,132 L163,163 L17,163 Z" fill="none" stroke="#1a1a1a" stroke-width="1.5"/>
    <path d="M17,150 L44,120 L68,136 L90,114 L112,136 L136,120 L163,148" fill="none" stroke="#1a1a1a" stroke-width="1.5"/>
    <path d="M17,156 L52,134 L74,148 L96,130 L118,148 L140,134 L163,156" fill="none" stroke="#1a1a1a" stroke-width="2"/>
  </g>

  <!-- Древо -->
  <path d="M86,138 L86,104 Q86,100 90,100 Q94,100 94,104 L94,138 Z" fill="#1a1a1a"/>
  <g stroke="#1a1a1a" stroke-width="2.8" stroke-linecap="round" fill="none">
    <path d="M90,108 Q70,98 56,84"/>
    <path d="M90,108 Q110,98 124,84"/>
    <path d="M90,102 Q66,90 52,70"/>
    <path d="M90,102 Q114,90 128,70"/>
    <path d="M90,96 Q76,78 70,56"/>
    <path d="M90,96 Q104,78 110,56"/>
    <path d="M90,92 L90,50"/>
  </g>
  <g fill="#1a1a1a">
    <circle cx="56" cy="84" r="5.5"/>
    <circle cx="124" cy="84" r="5.5"/>
    <circle cx="52" cy="70" r="5.5"/>
    <circle cx="128" cy="70" r="5.5"/>
    <circle cx="70" cy="56" r="5.5"/>
    <circle cx="110" cy="56" r="5.5"/>
    <circle cx="90" cy="50" r="6.5"/>
  </g>

  <text x="195" y="78" font-family="Georgia, serif" font-size="50" font-weight="bold" fill="#1a1a1a" letter-spacing="2">Vorhda</text>
  <text x="197" y="105" font-family="Georgia, serif" font-size="17" fill="#1a1a1a" font-weight="bold" letter-spacing="4">ВОРХ ДА · СЕМЬ ОТЦОВ</text>
  <text x="197" y="130" font-family="Arial, sans-serif" font-size="11" fill="#1a1a1a" letter-spacing="1.5">РОДОВАЯ ПАМЯТЬ ЧЕЧЕНСКИХ ТЕЙПОВ</text>
</svg>
